<?xml version="1.0" standalone="no"?><!DOCTYPE svg PUBLIC "-//W3C//DTD SVG 1.1//EN" "http://www.w3.org/Graphics/SVG/1.1/DTD/svg11.dtd"><svg t="1511444506489" class="icon" style="" viewBox="0 0 1117 1024" version="1.1" xmlns="http://www.w3.org/2000/svg" p-id="7713" xmlns:xlink="http://www.w3.org/1999/xlink" width="218.1640625" height="200"><defs><style type="text/css"></style></defs><path d="M1067.71995 2.730667h-43.690667v84.650666h-128.341333v-84.650666h-679.936v84.650666h-128.341333v-84.650666H43.71995c-24.576 0-43.690667 19.114667-43.690667 43.690666v933.888c0 24.576 19.114667 43.690667 43.690667 43.690667h43.690667v-43.690667h128.341333v43.690667h679.936v-43.690667h128.341333v43.690667h43.690667c24.576 0 43.690667-19.114667 43.690667-43.690667v-933.888c-2.730667-24.576-19.114667-43.690667-43.690667-43.690666z m-849.237333 849.237333h-128.341334V723.626667h128.341334v128.341333z m0-253.952h-128.341334v-128.341333h128.341334v128.341333z m0-253.952h-128.341334v-128.341333h128.341334v128.341333z m535.210666 196.608l-275.797333 161.109333c-5.461333 2.730667-8.192 2.730667-13.653333 2.730667s-10.922667-2.730667-16.384-5.461333c-8.192-5.461333-16.384-16.384-16.384-27.306667v-322.218667c0-10.922667 5.461333-21.845333 16.384-27.306666 8.192-5.461333 21.845333-5.461333 30.037333 0l275.797333 161.109333c10.922667 5.461333 16.384 16.384 16.384 27.306667 0 13.653333-5.461333 24.576-16.384 30.037333z m270.336 311.296h-128.341333V723.626667h128.341333v128.341333z m0-253.952h-128.341333v-128.341333h128.341333v128.341333z m0-253.952h-128.341333v-128.341333h128.341333v128.341333z" fill="#2E9FD1" p-id="7714"></path></svg>